<svg id="eLpPXazwEtg1" xmlns="http://www.w3.org/2000/svg" xmlns:xlink="http://www.w3.org/1999/xlink" viewBox="13 0 190 190" shape-rendering="geometricPrecision" text-rendering="geometricPrecision" project-id="7c1569a8f67f41479ff2c37a64bf575f" export-id="fdc998c92f604eb78fc6eb319ed65626" cached="false" style="background-color:transparent"><polygon points="0,-70.408847 60.97585,-35.204423 60.97585,35.204424 0,70.408847 -60.97585,35.204424 -60.97585,-35.204423 0,-70.408847" transform="translate(108 95)" fill="none" stroke="#d1caad" stroke-width="3"/><polygon points="0,-48.473583 41.979354,-24.236792 41.979354,24.236791 0,48.473583 -41.979354,24.236791 -41.979354,-24.236792 0,-48.473583" transform="translate(108 95)" fill="none" stroke="#d1caad" stroke-width="3"/><line x1="-60.97585" y1="-35.949837" x2="60.97585" y2="35.949838" transform="translate(108 94.368324)" fill="none" stroke="#d1caad" stroke-width="2.15"/><line x1="-60.97585" y1="-35.949837" x2="60.97585" y2="35.949838" transform="matrix(-.5 0.866025-.866025-.5 108 94.37)" fill="none" stroke="#d1caad" stroke-width="2.15"/><line x1="-30.476439" y1="-17.725267" x2="30.476439" y2="17.725267" transform="translate(95.919188 136.559452)" fill="none" stroke="#d1caad" stroke-width="3"/><line x1="-30.476439" y1="-17.725267" x2="30.476439" y2="17.725267" transform="matrix(-.5 0.866025-.866025-.5 119.390603 136.559452)" fill="none" stroke="#d1caad" stroke-width="3"/></svg>
